<?xml version="1.0" standalone="no"?>
<!DOCTYPE svg PUBLIC "-//W3C//DTD SVG 20010904//EN"
 "http://www.w3.org/TR/2001/REC-SVG-20010904/DTD/svg10.dtd">
<svg version="1.0" xmlns="http://www.w3.org/2000/svg"
 width="450.000000pt" height="450.000000pt" viewBox="0 0 450.000000 450.000000"
 preserveAspectRatio="xMidYMid meet">
<metadata>
Created by potrace 1.14, written by Peter Selinger 2001-2017
</metadata>
<g transform="translate(0.000000,450.000000) scale(0.100000,-0.100000)"
fill="#000000" stroke="none">
<path d="M2015 4444 c-49 -7 -108 -16 -130 -19 -78 -12 -242 -57 -365 -102
-69 -25 -142 -47 -163 -49 -113 -8 -209 -49 -332 -144 -44 -34 -131 -100 -194
-147 -150 -113 -220 -187 -332 -354 -62 -93 -65 -96 -106 -174 -113 -214 -209
-480 -237 -660 -4 -22 -11 -67 -16 -100 -32 -207 -30 -518 5 -641 8 -28 25
-67 39 -86 13 -20 31 -69 40 -109 17 -73 83 -275 96 -294 4 -5 17 -35 29 -67
23 -57 21 -75 -11 -112 -44 -51 -130 -212 -145 -271 -36 -144 -43 -235 -29
-350 49 -401 378 -700 781 -711 232 -7 464 90 621 258 35 37 52 49 68 45 11
-3 57 -14 101 -26 80 -22 96 -25 169 -36 21 -4 48 -8 60 -11 87 -17 340 -25
428 -14 27 4 52 2 57 -3 10 -10 134 -12 176 -3 63 13 106 29 146 55 24 16 63
34 86 40 62 17 203 73 318 126 169 79 183 85 199 85 9 0 16 -4 16 -10 0 -5 11
-12 25 -16 28 -7 88 24 173 90 69 54 276 256 334 326 58 70 198 280 198 296 0
7 4 14 8 16 5 2 28 41 51 88 24 47 47 93 51 102 15 27 60 140 74 183 38 115
45 139 72 260 35 152 50 376 29 415 -6 12 -22 27 -35 33 -25 13 -31 31 -44
147 -3 30 -8 71 -11 90 -13 86 -28 176 -31 190 -19 85 -33 155 -38 191 -8 65
-19 103 -61 216 -121 331 -369 693 -529 775 -23 12 -42 20 -44 19 -11 -7 -68
20 -122 59 -298 217 -622 350 -980 401 -117 16 -386 18 -495 3z"/>
</g>
</svg>
